<svg width="48" height="48" viewBox="0 0 48 48" fill="none" xmlns="http://www.w3.org/2000/svg">
  <rect width="48" height="48" rx="24" fill="#E6F0FF"/>
  <path d="M24 12C19.5817 12 16 15.5817 16 20V28C16 32.4183 19.5817 36 24 36C28.4183 36 32 32.4183 32 28V20C32 15.5817 28.4183 12 24 12Z" fill="#3B82F6" fill-opacity="0.2"/>
  <path d="M24 32C26.2091 32 28 30.2091 28 28C28 25.7909 26.2091 24 24 24C21.7909 24 20 25.7909 20 28C20 30.2091 21.7909 32 24 32Z" fill="#3B82F6"/>
  <path d="M18 20C19.1046 20 20 19.1046 20 18C20 16.8954 19.1046 16 18 16C16.8954 16 16 16.8954 16 18C16 19.1046 16.8954 20 18 20Z" fill="#3B82F6"/>
  <path d="M30 20C31.1046 20 32 19.1046 32 18C32 16.8954 31.1046 16 30 16C28.8954 16 28 16.8954 28 18C28 19.1046 28.8954 20 30 20Z" fill="#3B82F6"/>
  <path d="M32 25.5C33.3807 25.5 34.5 24.3807 34.5 23C34.5 21.6193 33.3807 20.5 32 20.5C30.6193 20.5 29.5 21.6193 29.5 23C29.5 24.3807 30.6193 25.5 32 25.5Z" fill="#3B82F6"/>
  <path d="M16 25.5C17.3807 25.5 18.5 24.3807 18.5 23C18.5 21.6193 17.3807 20.5 16 20.5C14.6193 20.5 13.5 21.6193 13.5 23C13.5 24.3807 14.6193 25.5 16 25.5Z" fill="#3B82F6"/>
  <path d="M28 34.1213C29.1046 35.2259 30.8954 35.2259 32 34.1213C33.1046 33.0167 33.1046 31.2259 32 30.1213" stroke="#3B82F6" stroke-width="2" stroke-linecap="round"/>
  <path d="M20 34.1213C18.8954 35.2259 17.1046 35.2259 16 34.1213C14.8954 33.0167 14.8954 31.2259 16 30.1213" stroke="#3B82F6" stroke-width="2" stroke-linecap="round"/>
</svg> 